<svg width="50" height="50" viewBox="0 0 50 50" fill="none" xmlns="http://www.w3.org/2000/svg">
<path d="M25 40.0834H25.5V39.5834V10V8.80294L24.6486 9.64438L15.7986 18.3903C14.5383 19.5795 13.5865 20.9283 12.9508 22.436C12.3155 23.9424 12 25.5627 12 27.2917C12 30.7955 13.2703 33.8131 15.7936 36.3184C18.3192 38.826 21.3979 40.0834 25 40.0834ZM25 43.25C20.512 43.25 16.7066 41.6949 13.5548 38.5769C10.4028 35.4586 8.83337 31.7062 8.83337 27.2917C8.83337 25.0648 9.25474 23.0169 10.092 21.1413C10.9345 19.2542 12.0967 17.5692 13.5812 16.0843C13.5817 16.0838 13.5822 16.0833 13.5828 16.0827L25 4.86756L36.4173 16.0827C36.4178 16.0832 36.4183 16.0837 36.4188 16.0842C37.9033 17.5691 39.0656 19.2541 39.9081 21.1413C40.7453 23.0169 41.1667 25.0648 41.1667 27.2917C41.1667 31.7062 39.5973 35.4586 36.4453 38.5769C33.2935 41.6949 29.4881 43.25 25 43.25Z" fill="white" stroke="black"/>
</svg>