<svg width="50" height="50" viewBox="0 0 50 50" fill="none" xmlns="http://www.w3.org/2000/svg">
<path d="M24.6504 9.64247L20.3685 13.8282L18.1574 11.6171L24.9999 4.86902L36.4172 16.1348C36.4176 16.1352 36.4181 16.1356 36.4185 16.136C38.0441 17.762 39.2366 19.5047 40.0068 21.3633C40.7795 23.2278 41.1666 25.2025 41.1666 27.2917C41.1666 28.5759 41.0315 29.7965 40.7629 30.9548C40.5552 31.8506 40.2989 32.6662 39.9956 33.4031L25.5 18.9075V10V8.81205L24.6504 9.64247ZM12.0202 17.1465L3.62373 8.75002L5.83329 6.54046L43.4595 44.1667L41.25 46.3762L35.1452 40.2715L34.8409 39.9672L34.4947 40.2227C33.083 41.2647 31.5472 42.0282 29.8854 42.515C28.2079 43.0064 26.5799 43.25 25 43.25C20.5102 43.25 16.7042 41.711 13.5528 38.627C10.4042 35.5458 8.83329 31.7778 8.83329 27.2917C8.83329 25.5742 9.10254 23.9273 9.63995 22.3487C10.1775 20.7697 10.9852 19.2531 12.0677 17.7985L12.3257 17.4519L12.0202 17.1465ZM25 40.0834H25.5V39.5834V30.8854V30.6783L25.3535 30.5319L14.9368 20.1152L14.5024 19.6808L14.1653 20.1944C13.4124 21.3416 12.8603 22.5062 12.5148 23.6879C12.1716 24.8621 12 26.0639 12 27.2917C12 30.8953 13.2673 33.9425 15.7974 36.4003C18.3238 38.8546 21.4012 40.0834 25 40.0834Z" fill="white" stroke="black"/>
</svg>