<svg width="30" height="30" viewBox="0 0 30 30" fill="none" xmlns="http://www.w3.org/2000/svg">
<g clip-path="url(#clip0_4_74)">
<path d="M12.75 6.25V6.78027C12.0501 6.96357 11.3871 7.23658 10.7629 7.59869L10.3946 7.23039L6.86336 3.69914L6.16248 2.99827L5.45543 3.69291L3.67418 5.44291L2.94484 6.15946L3.67738 6.87272L7.23988 10.3415L7.62554 10.717C7.25004 11.3545 6.96807 12.0329 6.78027 12.75H6.25H1.25H0.25V13.75V16.25V17.25H1.25H6.25H6.78027C6.96357 17.9499 7.23658 18.6129 7.59869 19.2371L7.19914 19.6366L3.69914 23.1366L2.99827 23.8375L3.69291 24.5446L5.44291 26.3258L6.14996 27.0455L6.86336 26.3321L10.4259 22.7696L10.7827 22.4128C11.4011 22.7692 12.0575 23.0384 12.75 23.2197V23.75V28.75V29.75H13.75H16.25H17.25V28.75V23.75V23.2197C17.9676 23.0318 18.6465 22.7495 19.2844 22.3736L19.6242 22.7257L23.093 26.3195L23.8122 27.0646L24.5317 26.3198L26.3129 24.4761L27.0082 23.7564L26.2881 23.0616L22.7256 19.6241L22.3736 19.2845C22.7495 18.6465 23.0318 17.9676 23.2197 17.25H23.75H28.75H29.75V16.25V13.75V12.75H28.75H23.75H23.2197C23.0364 12.0501 22.7634 11.3871 22.4013 10.7629L22.7696 10.3946L26.3009 6.86336L27.0017 6.16248L26.3071 5.45543L24.5571 3.67418L23.8406 2.94493L23.1274 3.6773L19.6274 7.27105L19.2824 7.6252C18.6451 7.24988 17.9668 6.96802 17.25 6.78027V6.25V1.25V0.25H16.25H13.75H12.75V1.25V6.25Z" fill="white" stroke="black" stroke-width="2"/>
</g>
<defs>
<clipPath id="clip0_4_74">
<rect width="30" height="30" fill="white"/>
</clipPath>
</defs>
</svg>
