<svg width="30" height="30" viewBox="0 0 30 30" fill="none" xmlns="http://www.w3.org/2000/svg">
<g clip-path="url(#clip0_176_8)">
<path d="M12.8182 6.72727V7.18664C12.1803 7.35741 11.5746 7.60679 11.003 7.93425L10.6844 7.61562L7.34574 4.27698L6.64487 3.57611L5.93781 4.27075L4.25372 5.9253L3.52439 6.64184L4.25693 7.35511L7.62511 10.6347L7.95914 10.9599C7.6194 11.5441 7.36171 12.1642 7.18664 12.8182H6.72727H2H1V13.8182V16.1818V17.1818H2H6.72727H7.18664C7.35741 17.8197 7.60679 18.4254 7.93425 18.997L7.58607 19.3452L4.27698 22.6543L3.57611 23.3551L4.27075 24.0622L5.9253 25.7463L6.63235 26.466L7.34574 25.7526L10.7139 22.3844L11.0218 22.0765C11.5879 22.3987 12.1873 22.6445 12.8182 22.8134V23.2727V28V29H13.8182H16.1818H17.1818V28V23.2727V22.8134C17.8362 22.6382 18.4567 22.3803 19.0413 22.0402L19.3328 22.3422L22.6123 25.7399L23.3315 26.485L24.051 25.7403L25.7351 23.9971L26.4303 23.2775L25.7103 22.5827L22.3421 19.3327L22.0402 19.0413C22.3802 18.4567 22.6382 17.8362 22.8134 17.1818H23.2727H28H29V16.1818V13.8182V12.8182H28H23.2727H22.8134C22.6426 12.1803 22.3932 11.5746 22.0657 11.003L22.3844 10.6844L25.723 7.34574L26.4239 6.64487L25.7292 5.93781L24.0747 4.25372L23.3582 3.52447L22.645 4.25684L19.3359 7.65457L19.0396 7.95883C18.4555 7.61924 17.8356 7.36165 17.1818 7.18664V6.72727V2V1H16.1818H13.8182H12.8182V2V6.72727Z" fill="white" stroke="black" stroke-width="2"/>
</g>
<defs>
<clipPath id="clip0_176_8">
<rect width="30" height="30" fill="white"/>
</clipPath>
</defs>
</svg>
