<svg width="150" height="76" viewBox="0 0 150 76" fill="none" xmlns="http://www.w3.org/2000/svg">
<g clip-path="url(#clip0_145_9)">
<path fill-rule="evenodd" clip-rule="evenodd" d="M133.186 119.091C119.855 136.656 98.7521 148 75 148C51.2479 148 30.1453 136.656 16.8143 119.091H14.3223C27.9578 137.824 50.0569 150 75 150C99.9431 150 122.042 137.824 135.678 119.091H133.186ZM2.00139 75.4546C2.00046 75.3031 2 75.1516 2 75C2 34.6832 34.6832 2 75 2C115.317 2 148 34.6832 148 75C148 75.1516 148 75.3031 147.999 75.4546H149.999C150 75.3031 150 75.1516 150 75C150 33.5786 116.421 0 75 0C33.5786 0 0 33.5786 0 75C0 75.1516 0.000449943 75.3031 0.00134857 75.4546H2.00139Z" fill="#D9D9D9"/>
<ellipse cx="74.5" cy="71" rx="16.5" ry="4.5" fill="#D9D9D9" fill-opacity="0.5"/>
<path d="M72.5 66L70.4375 71L68.125 70.0625L69.9375 65.6562C67.7292 65.0729 65.9375 63.8854 64.5625 62.0938C63.1875 60.3021 62.5 58.2708 62.5 56V51C62.5 49.625 62.9896 48.4479 63.9688 47.4688C64.9479 46.4896 66.125 46 67.5 46C67.9583 46 68.3958 46.0781 68.8125 46.2344C69.2292 46.3906 69.6458 46.5521 70.0625 46.7188L77.5 49.75L72.5 51.625V53.5L82.3125 59.75H72.5C71.8125 59.75 71.224 59.5052 70.7344 59.0156C70.2448 58.526 70 57.9375 70 57.25H67.5C67.5 58.625 67.9896 59.8021 68.9688 60.7812C69.9479 61.7604 71.125 62.25 72.5 62.25H86.25L87.5 68.5H85L83.75 66H77.5V71H75V66H72.5ZM67.5 49.75C67.1458 49.75 66.849 49.8698 66.6094 50.1094C66.3698 50.349 66.25 50.6458 66.25 51C66.25 51.3542 66.3698 51.651 66.6094 51.8906C66.849 52.1302 67.1458 52.25 67.5 52.25C67.8542 52.25 68.151 52.1302 68.3906 51.8906C68.6302 51.651 68.75 51.3542 68.75 51C68.75 50.6458 68.6302 50.349 68.3906 50.1094C68.151 49.8698 67.8542 49.75 67.5 49.75Z" fill="#720484"/>
</g>
<defs>
<clipPath id="clip0_145_9">
<rect width="150" height="75.5" fill="white"/>
</clipPath>
</defs>
</svg>