<svg width="25" height="25" viewBox="0 0 25 25" fill="none" xmlns="http://www.w3.org/2000/svg">
<g clip-path="url(#clip0_103_139)">
<path d="M12.5003 23.1565C18.3856 23.1565 23.1565 18.3855 23.1565 12.5002C23.1565 6.61494 18.3856 1.84396 12.5003 1.84396C6.61497 1.84396 1.84399 6.61494 1.84399 12.5002C1.84399 18.3855 6.61497 23.1565 12.5003 23.1565Z" fill="#DE5833"/>
<mask id="mask0_103_139" style="mask-type:luminance" maskUnits="userSpaceOnUse" x="1" y="1" width="23" height="23">
<path d="M23.1985 12.4706C23.1985 18.3698 18.3996 23.1694 12.4998 23.1694C6.60121 23.1694 1.80225 18.3694 1.80225 12.4706C1.80225 6.57189 6.60142 1.77272 12.4998 1.77272C18.3994 1.77272 23.1985 6.57189 23.1985 12.4706Z" fill="white"/>
</mask>
<g mask="url(#mask0_103_139)">
<path d="M16.867 28.3736C16.492 26.6475 14.3124 22.7402 13.4857 21.0882C12.6591 19.4361 11.832 17.109 12.2087 15.6044C12.277 15.3311 11.4928 13.2486 11.7182 13.1013C13.4716 11.9554 13.9332 13.2263 14.6353 12.7134C14.9966 12.4482 15.4895 12.9315 15.6145 12.4925C16.0641 10.9161 14.9882 8.16752 13.7874 6.96627C13.3947 6.5746 12.7937 6.32877 12.1145 6.19814C11.8532 5.84127 11.4322 5.49814 10.8357 5.18148C10.1716 4.82793 8.7274 4.36106 7.97803 4.23668C7.45886 4.15335 7.34157 4.29648 7.11969 4.33252C7.32636 4.35085 8.3072 4.83543 8.49782 4.86377C8.30699 4.99294 7.74636 4.85793 7.38865 5.01835C7.20844 5.10002 7.07365 5.40939 7.0749 5.55585C8.09574 5.45252 9.69449 5.55252 10.6374 5.97252C9.88699 6.05585 8.74574 6.15314 8.2549 6.41106C6.82824 7.16273 6.19803 8.91836 6.57365 11.0221C6.94949 13.1211 8.60241 20.7825 9.12824 23.3409C9.65428 25.8959 8.00157 27.5492 6.95011 27.998L8.07678 28.0736L7.70178 28.9C9.05261 29.05 10.5549 28.6 10.5549 28.6C10.2553 29.4261 8.22657 29.7275 8.22657 29.7275C8.22657 29.7275 9.20574 30.0271 10.7803 29.4261L13.3351 28.4494L14.086 30.4021L15.5139 28.9757L16.1149 30.4757C16.1178 30.4755 17.2449 30.099 16.8691 28.3709L16.867 28.3736Z" fill="#D5D7D8"/>
<path d="M17.3205 28.0234C16.9465 26.2942 14.7672 22.3894 13.9397 20.7359C13.1122 19.0823 12.2865 16.7542 12.6626 15.2525C12.7324 14.9817 12.7334 13.8634 12.9605 13.715C14.7105 12.5704 14.588 13.6767 15.2911 13.164C15.6536 12.8994 15.9438 12.5794 16.0699 12.1407C16.5207 10.5631 15.4436 7.81565 14.2422 6.61356C13.8505 6.22189 13.2488 5.97564 12.5707 5.84564C12.3099 5.48773 11.8894 5.14564 11.2936 4.82856C10.1686 4.23231 8.77819 3.99397 7.48819 4.22793C7.69653 4.24877 8.16653 4.67335 8.35653 4.70148C8.06903 4.89648 7.30382 4.87127 7.30861 5.30481C8.33278 5.20231 9.45507 5.36418 10.399 5.78335C9.64861 5.86669 8.95007 6.05419 8.46153 6.31315C7.03361 7.06377 6.65819 8.56565 7.03361 10.6702C7.41007 12.7738 9.06319 20.4355 9.58694 22.9882C10.1134 25.5423 8.46153 27.194 7.40986 27.6453L8.53653 27.7203L8.16153 28.548C9.51236 28.698 11.0147 28.248 11.0147 28.248C10.7151 29.0759 8.68632 29.3742 8.68632 29.3742C8.68632 29.3742 9.66257 29.6742 11.2401 29.0732L13.7963 28.0965L14.5472 30.0492L15.9747 28.6221L16.5788 30.1253C16.5755 30.1267 17.7013 29.7509 17.3247 28.0236L17.3205 28.0234Z" fill="white"/>
<path d="M8.68506 10.7761C8.68506 10.34 9.03777 9.98711 9.47464 9.98711C9.91214 9.98711 10.2632 10.34 10.2632 10.7761C10.2632 11.2121 9.91006 11.5648 9.47464 11.5648C9.03798 11.565 8.68506 11.2123 8.68506 10.7761Z" fill="#2D4F8E"/>
<path d="M9.61987 10.5136C9.61979 10.4867 9.62501 10.4601 9.63523 10.4352C9.64546 10.4104 9.66048 10.3878 9.67945 10.3688C9.69842 10.3498 9.72095 10.3347 9.74576 10.3244C9.77058 10.3141 9.79718 10.3088 9.82404 10.3088C9.93717 10.3088 10.029 10.4 10.029 10.5136C10.029 10.6271 9.93737 10.7186 9.82404 10.7186C9.71196 10.7188 9.61987 10.6269 9.61987 10.5136Z" fill="white"/>
<path d="M14.0699 10.3084C14.0699 9.93481 14.3741 9.63127 14.7474 9.63127C15.1224 9.63127 15.4258 9.93481 15.4258 10.3084C15.4258 10.6834 15.1227 10.9871 14.7474 10.9871C14.5677 10.9867 14.3954 10.915 14.2684 10.7877C14.1414 10.6605 14.0701 10.4881 14.0699 10.3084Z" fill="#2D4F8E"/>
<path d="M14.8737 10.0829C14.8737 9.98648 14.9528 9.90731 15.0482 9.90731C15.0714 9.90715 15.0943 9.91158 15.1157 9.92034C15.1372 9.9291 15.1566 9.94201 15.173 9.95835C15.1894 9.97468 15.2024 9.9941 15.2112 10.0155C15.2201 10.0369 15.2246 10.0598 15.2245 10.0829C15.2245 10.1809 15.148 10.2584 15.0482 10.2584C15.0253 10.2583 15.0025 10.2537 14.9813 10.2449C14.9601 10.236 14.9408 10.2231 14.9246 10.2068C14.9084 10.1905 14.8956 10.1712 14.8868 10.1499C14.8781 10.1287 14.8736 10.1059 14.8737 10.0829Z" fill="white"/>
<path d="M9.69885 8.49022C9.69885 8.49022 9.10426 8.21939 8.52593 8.5846C7.94759 8.94981 7.97009 9.31856 7.97009 9.31856C7.97009 9.31856 7.66322 8.6346 8.48114 8.29939C9.29905 7.96418 9.69885 8.49022 9.69885 8.49022Z" fill="url(#paint0_linear_103_139)"/>
<path d="M15.1556 8.43606C15.1556 8.43606 14.7285 8.19189 14.3966 8.19606C13.7154 8.20502 13.5295 8.50606 13.5295 8.50606C13.5295 8.50606 13.6441 7.78835 14.5154 7.93231C14.9879 8.01085 15.1556 8.43606 15.1556 8.43606Z" fill="url(#paint1_linear_103_139)"/>
</g>
<path d="M11.8893 13.8188C11.9685 13.3396 13.2018 12.4386 14.0768 12.384C14.9518 12.3288 15.2227 12.3413 15.9518 12.1667C16.681 11.9921 18.5633 11.5234 19.0837 11.2829C19.6054 11.0421 21.8137 11.4021 20.2566 12.27C19.5833 12.645 17.7685 13.3388 16.4708 13.7256C15.175 14.1131 14.3875 13.3556 13.9583 13.9923C13.6154 14.499 13.8887 15.1927 15.4375 15.3367C17.5285 15.5304 19.5333 14.395 19.7541 14.9981C19.975 15.6013 17.9573 16.354 16.7281 16.3779C15.5004 16.3988 13.026 15.5663 12.6541 15.3077C12.2823 15.0492 11.7864 14.4473 11.8896 13.8186L11.8893 13.8188Z" fill="#FDD20A"/>
<path d="M12.8358 20.1307C12.8358 20.1307 9.89786 18.564 9.84995 19.1994C9.80036 19.8361 9.84995 22.4286 10.1922 22.6265C10.5345 22.8244 12.9831 21.354 12.9831 21.354L12.8358 20.1307ZM13.9614 20.0319C13.9614 20.0319 15.9687 18.5142 16.4102 18.6121C16.8477 18.7121 16.9481 21.8413 16.556 21.9934C16.1643 22.1392 13.8668 21.199 13.8668 21.199L13.9614 20.0319Z" fill="#65BC46"/>
<path d="M12.1248 20.299C12.1248 21.3265 11.9789 21.7677 12.4164 21.8657C12.8539 21.9636 13.6881 21.8657 13.9827 21.6702C14.2773 21.4748 14.031 20.1536 13.9344 19.9067C13.835 19.6621 12.1227 19.8584 12.1227 20.2992L12.1248 20.299Z" fill="#43A244"/>
<path d="M12.3115 20.0682C12.3115 21.0959 12.1642 21.5369 12.6031 21.6348C13.0419 21.7348 13.8748 21.6348 14.1698 21.4394C14.4615 21.2436 14.2177 19.9227 14.1206 19.6757C14.0221 19.4313 12.3098 19.6284 12.3098 20.0684L12.3115 20.0682Z" fill="#65BC46"/>
<path fill-rule="evenodd" clip-rule="evenodd" d="M12.5 1.04168C6.17175 1.04168 1.04167 6.17176 1.04167 12.5C1.04167 18.8283 6.17175 23.9584 12.5 23.9584C18.8283 23.9584 23.9584 18.8283 23.9584 12.5C23.9584 6.17176 18.8283 1.04168 12.5 1.04168ZM0 12.5C0 5.59646 5.59645 1.52588e-05 12.5 1.52588e-05C19.4036 1.52588e-05 25 5.59646 25 12.5C25 19.4036 19.4036 25 12.5 25C5.59645 25 0 19.4036 0 12.5Z" fill="#DE5833"/>
</g>
<defs>
<linearGradient id="paint0_linear_103_139" x1="7.91384" y1="8.75293" x2="9.69906" y2="8.75293" gradientUnits="userSpaceOnUse">
<stop offset="0.006" stop-color="#6176B9"/>
<stop offset="0.691" stop-color="#394A9F"/>
</linearGradient>
<linearGradient id="paint1_linear_103_139" x1="13.5295" y1="8.2096" x2="15.1556" y2="8.2096" gradientUnits="userSpaceOnUse">
<stop offset="0.006" stop-color="#6176B9"/>
<stop offset="0.691" stop-color="#394A9F"/>
</linearGradient>
<clipPath id="clip0_103_139">
<rect width="25" height="25" fill="white"/>
</clipPath>
</defs>
</svg>
