<svg width="25" height="25" viewBox="0 0 25 25" fill="none" xmlns="http://www.w3.org/2000/svg">
<mask id="mask0_103_13" style="mask-type:luminance" maskUnits="userSpaceOnUse" x="0" y="0" width="25" height="25">
<path fill-rule="evenodd" clip-rule="evenodd" d="M0 12.5C0 19.4028 5.59648 24.9993 12.5 24.9993C19.4032 24.9993 25 19.4028 25 12.5C25 5.59624 19.4035 -2.86102e-05 12.5 -2.86102e-05C5.59626 -2.86102e-05 0 5.59645 0 12.5ZM2.27696 16.7362C0.557623 12.6112 1.49497 7.85706 4.64969 4.6931C7.80582 1.5285 12.5571 0.577974 16.6871 2.28511C20.8173 3.99226 23.5111 8.02058 23.5111 12.4892C23.5162 15.4135 22.3588 18.2208 20.2939 20.2915C18.2286 22.3625 15.4249 23.528 12.5 23.5312H12.4686C8.01221 23.5312 3.99186 20.8513 2.27696 16.7362Z" fill="white"/>
</mask>
<g mask="url(#mask0_103_13)">
<mask id="mask1_103_13" style="mask-type:luminance" maskUnits="userSpaceOnUse" x="-119" y="-249" width="266" height="574">
<path d="M-118.187 324.044H146.24V-248.528H-118.187V324.044Z" fill="white"/>
</mask>
<g mask="url(#mask1_103_13)">
<path d="M-3.52576 -3.52572H28.5256V28.525H-3.52576V-3.52572Z" fill="#FF7950"/>
</g>
</g>
<mask id="mask2_103_13" style="mask-type:luminance" maskUnits="userSpaceOnUse" x="3" y="3" width="19" height="19">
<path fill-rule="evenodd" clip-rule="evenodd" d="M3.33246 12.5028C3.33246 17.565 7.43672 21.6696 12.4993 21.6696C17.5624 21.6696 21.6668 17.5648 21.6668 12.5028C21.6668 7.44018 17.5625 3.33599 12.4993 3.33599C7.43665 3.33599 3.33246 7.44025 3.33246 12.5028Z" fill="white"/>
</mask>
<g mask="url(#mask2_103_13)">
<mask id="mask3_103_13" style="mask-type:luminance" maskUnits="userSpaceOnUse" x="-119" y="-249" width="266" height="574">
<path d="M-118.187 324.044H146.24V-248.528H-118.187V324.044Z" fill="white"/>
</mask>
<g mask="url(#mask3_103_13)">
<path d="M-0.193237 -0.190439H25.1925V25.1946H-0.193237V-0.190439Z" fill="#36ACB8"/>
</g>
</g>
<mask id="mask4_103_13" style="mask-type:luminance" maskUnits="userSpaceOnUse" x="4" y="5" width="3" height="3">
<path fill-rule="evenodd" clip-rule="evenodd" d="M4.75684 7.59503C4.87934 7.57156 4.99904 7.56593 5.08822 7.53308C5.27362 7.42934 5.44683 7.30542 5.60407 7.16226C5.73738 7.10265 5.84487 7.14161 5.94297 7.18104C6.06736 7.22986 6.17861 7.27961 6.31238 7.13128C6.55177 6.86467 6.21334 6.32157 6.21334 5.98219C6.21898 5.91178 6.23916 5.84325 6.26872 5.778C5.68997 6.31498 5.18211 6.92571 4.75684 7.59503Z" fill="white"/>
</mask>
<g mask="url(#mask4_103_13)">
<mask id="mask5_103_13" style="mask-type:luminance" maskUnits="userSpaceOnUse" x="-119" y="-249" width="266" height="574">
<path d="M-118.187 324.044H146.24V-248.528H-118.187V324.044Z" fill="white"/>
</mask>
<g mask="url(#mask5_103_13)">
<path d="M1.2312 2.25219H9.92345V11.1207H1.2312V2.25219Z" fill="#D3DA31"/>
</g>
</g>
<mask id="mask6_103_13" style="mask-type:luminance" maskUnits="userSpaceOnUse" x="3" y="11" width="4" height="6">
<path fill-rule="evenodd" clip-rule="evenodd" d="M3.42486 11.2096C3.39952 11.3889 3.38074 11.5687 3.36619 11.7489C3.36146 11.8005 3.35728 11.8522 3.35399 11.9043C3.34085 12.1089 3.3324 12.3145 3.33284 12.5196C3.33665 14.0817 3.73044 15.551 4.42228 16.8366C4.51804 16.7436 4.61755 16.676 4.7133 16.5751C4.84895 16.3404 5.01512 16.1057 5.1503 15.8654C5.4324 15.6936 5.70277 15.5016 5.95811 15.2909C6.02523 15.0872 6.12474 14.8525 6.19234 14.6488C6.25946 14.4455 6.66078 14.1789 6.59835 13.8034C6.44721 13.2711 5.77038 13.2026 5.40004 12.8318C5.23388 12.5971 5.06208 12.3098 4.87996 12.0906C4.49506 11.6456 3.99375 11.3185 3.43288 11.1457C3.42957 11.1668 3.4277 11.1885 3.42486 11.2096Z" fill="white"/>
</mask>
<g mask="url(#mask6_103_13)">
<mask id="mask7_103_13" style="mask-type:luminance" maskUnits="userSpaceOnUse" x="-119" y="-249" width="266" height="574">
<path d="M-118.187 324.044H146.24V-248.528H-118.187V324.044Z" fill="white"/>
</mask>
<g mask="url(#mask7_103_13)">
<path d="M-0.192383 7.61971H10.1309V20.3623H-0.192383V7.61971Z" fill="#D3DA31"/>
</g>
</g>
<mask id="mask8_103_13" style="mask-type:luminance" maskUnits="userSpaceOnUse" x="8" y="5" width="14" height="13">
<path fill-rule="evenodd" clip-rule="evenodd" d="M13.3849 5.96193C12.9428 6.08163 12.5443 6.32853 12.2391 6.67165C12.0049 7.04247 12.3067 7.27716 11.8697 7.48087C11.6261 7.36633 11.3999 7.21895 11.1976 7.04246C11.0079 7.05607 10.8352 7.15558 10.7287 7.31377C10.6981 7.72072 11 7.78316 11 8.19061C10.8333 8.42577 10.4264 8.46238 10.3278 8.71304C10.2283 8.96369 10.3278 9.35468 10.125 9.58988C9.82274 9.86165 9.52046 10.1644 9.25009 10.4357C8.7746 11.1454 8.82999 12.0847 9.3848 12.7329C9.61386 12.9629 9.90723 12.9549 10.2184 12.9465C10.4578 12.9403 10.7075 12.9338 10.9474 13.0356C11.3539 13.2032 11.4163 13.9805 11.52 14.3518C11.7233 14.9568 11.3539 15.2286 11.3539 15.8027C11.3539 16.3772 11.5571 18.0318 12.3645 17.9957C13.2756 17.9642 13.4741 17.0508 13.9787 16.4293C14.2026 16.2618 14.396 16.0566 14.5523 15.8234C14.5523 15.5211 14.5833 15.1817 14.5833 14.879C14.786 14.357 15.4268 14.1687 15.76 13.767C16.0937 13.3647 15.791 13.0934 15.9632 12.7902C15.9801 12.7902 15.9947 12.7766 15.9947 12.7592C16.2651 12.5921 16.5152 12.456 16.8377 12.2894C16.9654 12.1256 17.101 11.9688 17.2446 11.819L17.5469 11.7205C18.588 12.2424 18.2186 13.3385 18.9584 13.913C19.0255 13.8815 19.057 13.8454 19.1246 13.8139C19.1809 13.6628 19.2137 13.5041 19.2241 13.3436C19.3785 12.8733 19.8418 12.5766 20.3333 12.6334C20.6567 12.9544 20.8998 13.3482 21.0411 13.7825C21.1091 14.1899 20.8383 14.4246 20.8383 14.7583C20.8698 15.047 20.9777 15.3202 21.1448 15.5563C21.1453 15.5563 21.1453 15.5558 21.1453 15.5548C21.4832 14.5997 21.6687 13.5717 21.6687 12.5005V12.4967C21.6687 12.3461 21.6649 12.1968 21.6574 12.0485C21.656 12.025 21.6541 12.0011 21.6532 11.9781C21.526 9.71845 20.5806 7.6794 19.1096 6.14876C18.9101 6.14361 18.697 6.1539 18.4994 6.18067C17.5531 6.33888 16.5984 6.4398 15.6403 6.48346C14.8466 6.48346 14.3889 5.92113 13.7055 5.92113C13.6041 5.92113 13.498 5.9333 13.3849 5.96193ZM13.5675 10.2005C13.3333 10.1695 13.0465 10.1695 12.8278 10.1329C12.7968 10.1329 11.6144 9.18805 11.5829 9.12C11.6237 9.01157 11.7092 8.92568 11.8171 8.88531C12.1236 9.01533 12.4076 9.19088 12.6611 9.40727L13.13 9.5063C13.2967 9.64196 13.4685 9.74147 13.651 9.87712C13.8571 9.95128 14.0726 9.99681 14.2908 10.0128C14.2908 10.0438 14.3223 10.0808 14.3223 10.1118V10.2794C14.2411 10.3 14.1632 10.3296 14.088 10.3681C13.9017 10.3658 13.7205 10.3075 13.5675 10.2005Z" fill="white"/>
</mask>
<g mask="url(#mask8_103_13)">
<mask id="mask9_103_13" style="mask-type:luminance" maskUnits="userSpaceOnUse" x="-119" y="-249" width="266" height="574">
<path d="M-118.187 324.044H146.24V-248.528H-118.187V324.044Z" fill="white"/>
</mask>
<g mask="url(#mask9_103_13)">
<path d="M5.40204 2.39532H25.1946V21.5215H5.40204V2.39532Z" fill="#D3DA31"/>
</g>
</g>
<mask id="mask10_103_13" style="mask-type:luminance" maskUnits="userSpaceOnUse" x="14" y="16" width="2" height="2">
<path fill-rule="evenodd" clip-rule="evenodd" d="M15.1669 16.1575C14.8332 16.3448 14.6177 16.6889 14.5942 17.0714C14.6445 17.1733 14.7266 17.2554 14.828 17.3061C15.1983 17.17 15.6043 16.5649 15.349 16.1941C15.3035 16.1687 15.2528 16.1556 15.2012 16.1556C15.1899 16.1556 15.1782 16.1561 15.1669 16.1575Z" fill="white"/>
</mask>
<g mask="url(#mask10_103_13)">
<mask id="mask11_103_13" style="mask-type:luminance" maskUnits="userSpaceOnUse" x="-119" y="-249" width="266" height="574">
<path d="M-118.187 324.044H146.24V-248.528H-118.187V324.044Z" fill="white"/>
</mask>
<g mask="url(#mask11_103_13)">
<path d="M11.0686 12.6304H18.9549V20.8326H11.0686V12.6304Z" fill="#D3DA31"/>
</g>
</g>
<mask id="mask12_103_13" style="mask-type:luminance" maskUnits="userSpaceOnUse" x="7" y="4" width="4" height="3">
<path fill-rule="evenodd" clip-rule="evenodd" d="M7.67685 4.70396C7.75101 4.78047 7.80781 4.8734 7.84348 4.97432C7.69468 5.19212 7.62334 5.4531 7.63977 5.71599C7.66417 5.85822 7.7496 5.98308 7.87399 6.05536C8.2326 6.01969 8.57807 5.90375 8.8846 5.71599C9.22303 5.6484 9.5934 5.61695 9.92616 5.54889C10.2599 5.48083 11.025 4.86499 10.7546 4.39564C10.588 4.32757 10.2829 4.22196 10.2336 4.22806C9.74028 4.29378 9.23993 4.25998 8.76022 4.12996C8.38471 4.298 8.02279 4.48898 7.67685 4.70396Z" fill="white"/>
</mask>
<g mask="url(#mask12_103_13)">
<mask id="mask13_103_13" style="mask-type:luminance" maskUnits="userSpaceOnUse" x="-119" y="-249" width="266" height="574">
<path d="M-118.187 324.044H146.24V-248.528H-118.187V324.044Z" fill="white"/>
</mask>
<g mask="url(#mask13_103_13)">
<mask id="mask14_103_13" style="mask-type:luminance" maskUnits="userSpaceOnUse" x="3" y="0" width="12" height="11">
<path d="M3.80206 10.2576H14.3791V0.385683H3.80206V10.2576Z" fill="white"/>
</mask>
<g mask="url(#mask14_103_13)">
<mask id="mask15_103_13" style="mask-type:luminance" maskUnits="userSpaceOnUse" x="7" y="3" width="5" height="4">
<path d="M7.32776 6.73193H11.5586V3.91138H7.32776V6.73193Z" fill="white"/>
</mask>
<g mask="url(#mask15_103_13)">
<path d="M4.11157 0.604289H14.3368V9.58141H4.11157V0.604289Z" fill="#D3DA31"/>
</g>
</g>
</g>
</g>
</svg>