<svg width="31" height="30" viewBox="0 0 31 30" fill="none" xmlns="http://www.w3.org/2000/svg">
<path fill-rule="evenodd" clip-rule="evenodd" d="M15.2669 0C6.82469 0 0 6.875 0 15.3803C0 22.1791 4.37281 27.9341 10.4391 29.9709C11.1975 30.1241 11.4753 29.64 11.4753 29.2328C11.4753 28.8762 11.4503 27.6541 11.4503 26.3806C7.20344 27.2975 6.31906 24.5472 6.31906 24.5472C5.63656 22.7647 4.62531 22.3066 4.62531 22.3066C3.23531 21.3644 4.72656 21.3644 4.72656 21.3644C6.26844 21.4662 7.0775 22.9431 7.0775 22.9431C8.44219 25.2856 10.6412 24.6237 11.5259 24.2162C11.6522 23.2231 12.0569 22.5356 12.4866 22.1537C9.09938 21.7972 5.53563 20.4731 5.53563 14.5653C5.53563 12.8847 6.14188 11.5097 7.1025 10.4403C6.95094 10.0584 6.42 8.47937 7.25438 6.36594C7.25438 6.36594 8.54344 5.95844 11.45 7.94469C12.6944 7.60802 13.9777 7.43675 15.2669 7.43531C16.5559 7.43531 17.87 7.61375 19.0834 7.94469C21.9903 5.95844 23.2794 6.36594 23.2794 6.36594C24.1138 8.47937 23.5825 10.0584 23.4309 10.4403C24.4169 11.5097 24.9981 12.8847 24.9981 14.5653C24.9981 20.4731 21.4344 21.7716 18.0219 22.1537C18.5781 22.6375 19.0581 23.5541 19.0581 25.0056C19.0581 27.0681 19.0331 28.7234 19.0331 29.2325C19.0331 29.64 19.3113 30.1241 20.0694 29.9712C26.1356 27.9337 30.5084 22.1791 30.5084 15.3803C30.5334 6.875 23.6838 0 15.2669 0Z" fill="white"/>
</svg>
