<svg width="75" height="75" viewBox="0 0 75 75" fill="none" xmlns="http://www.w3.org/2000/svg">
<circle cx="37.5" cy="37.5" r="35.5" fill="black" fill-opacity="0.75" stroke="black" stroke-width="4"/>
<path fill-rule="evenodd" clip-rule="evenodd" d="M38.2669 23C29.8247 23 23 29.875 23 38.3803C23 45.1791 27.3728 50.9341 33.4391 52.9709C34.1975 53.1241 34.4753 52.64 34.4753 52.2328C34.4753 51.8762 34.4503 50.6541 34.4503 49.3806C30.2034 50.2975 29.3191 47.5472 29.3191 47.5472C28.6366 45.7647 27.6253 45.3066 27.6253 45.3066C26.2353 44.3644 27.7266 44.3644 27.7266 44.3644C29.2684 44.4662 30.0775 45.9431 30.0775 45.9431C31.4422 48.2856 33.6412 47.6237 34.5259 47.2162C34.6522 46.2231 35.0569 45.5356 35.4866 45.1537C32.0994 44.7972 28.5356 43.4731 28.5356 37.5653C28.5356 35.8847 29.1419 34.5097 30.1025 33.4403C29.9509 33.0584 29.42 31.4794 30.2544 29.3659C30.2544 29.3659 31.5434 28.9584 34.45 30.9447C35.6944 30.608 36.9777 30.4368 38.2669 30.4353C39.5559 30.4353 40.87 30.6137 42.0834 30.9447C44.9903 28.9584 46.2794 29.3659 46.2794 29.3659C47.1138 31.4794 46.5825 33.0584 46.4309 33.4403C47.4169 34.5097 47.9981 35.8847 47.9981 37.5653C47.9981 43.4731 44.4344 44.7716 41.0219 45.1537C41.5781 45.6375 42.0581 46.5541 42.0581 48.0056C42.0581 50.0681 42.0331 51.7234 42.0331 52.2325C42.0331 52.64 42.3113 53.1241 43.0694 52.9712C49.1356 50.9337 53.5084 45.1791 53.5084 38.3803C53.5334 29.875 46.6838 23 38.2669 23Z" fill="white"/>
</svg>
