<svg width="33" height="30" viewBox="0 0 33 30" fill="none" xmlns="http://www.w3.org/2000/svg">
<path d="M16.2848 30L22.2854 11.5425H10.293L16.2848 30Z" fill="#E24329"/>
<path d="M1.88818 11.5425L0.0608782 17.1501C-0.104477 17.6593 0.0740945 18.2214 0.510539 18.5388L16.2848 29.9999L1.88818 11.5425Z" fill="#FCA326"/>
<path d="M1.88818 11.5426H10.2929L6.67576 0.426532C6.49063 -0.142177 5.68382 -0.142177 5.49204 0.426532L1.88818 11.5426Z" fill="#E24329"/>
<path d="M30.6901 11.5425L32.5108 17.1501C32.6762 17.6593 32.4976 18.2214 32.0611 18.5388L16.2848 30L30.6901 11.5425Z" fill="#FCA326"/>
<path d="M30.69 11.5426H22.2853L25.8958 0.426532C26.0809 -0.142177 26.8877 -0.142177 27.0795 0.426532L30.69 11.5426Z" fill="#E24329"/>
<path d="M16.2848 30L22.2853 11.5425H30.6901L16.2848 30Z" fill="#FC6D26"/>
<path d="M16.2848 30L1.88818 11.5425H10.2929L16.2848 30Z" fill="#FC6D26"/>
</svg>
