<svg width="75" height="75" viewBox="0 0 75 75" fill="none" xmlns="http://www.w3.org/2000/svg">
<circle cx="37.5" cy="37.5" r="35.5" fill="black" fill-opacity="0.75" stroke="black" stroke-width="4"/>
<path d="M38.2848 53L44.2854 34.5426H32.293L38.2848 53Z" fill="#E24329"/>
<path d="M23.8882 34.5426L22.0609 40.1502C21.8955 40.6594 22.0741 41.2214 22.5105 41.5388L38.2848 52.9999L23.8882 34.5426Z" fill="#FCA326"/>
<path d="M23.8882 34.5426H32.2929L28.6758 23.4265C28.4906 22.8578 27.6838 22.8578 27.492 23.4265L23.8882 34.5426Z" fill="#E24329"/>
<path d="M52.6901 34.5426L54.5108 40.1502C54.6762 40.6594 54.4976 41.2214 54.0611 41.5388L38.2848 53L52.6901 34.5426Z" fill="#FCA326"/>
<path d="M52.69 34.5426H44.2853L47.8958 23.4265C48.0809 22.8578 48.8877 22.8578 49.0795 23.4265L52.69 34.5426Z" fill="#E24329"/>
<path d="M38.2848 53L44.2853 34.5426H52.6901L38.2848 53Z" fill="#FC6D26"/>
<path d="M38.2848 53L23.8882 34.5426H32.2929L38.2848 53Z" fill="#FC6D26"/>
</svg>
