<svg width="25" height="25" viewBox="0 0 25 25" fill="none" xmlns="http://www.w3.org/2000/svg">
<path d="M23.5 12.7604C23.5 11.9479 23.4271 11.1667 23.2917 10.4167H12.5V14.8542H18.6667C18.3958 16.2812 17.5833 17.4896 16.3646 18.3021V21.1875H20.0833C22.25 19.1875 23.5 16.25 23.5 12.7604Z" fill="#4285F4"/>
<path d="M12.5 23.9583C15.5937 23.9583 18.1875 22.9375 20.0833 21.1875L16.3646 18.3021C15.3437 18.9896 14.0416 19.4062 12.5 19.4062C9.52081 19.4062 6.98956 17.3958 6.08331 14.6875H2.27081V17.6458C4.15623 21.3854 8.02081 23.9583 12.5 23.9583Z" fill="#34A853"/>
<path d="M6.08335 14.6771C5.85419 13.9896 5.71877 13.2604 5.71877 12.5C5.71877 11.7396 5.85419 11.0104 6.08335 10.3229V7.36458H2.27085C1.4896 8.90624 1.04169 10.6458 1.04169 12.5C1.04169 14.3542 1.4896 16.0937 2.27085 17.6354L5.2396 15.3229L6.08335 14.6771Z" fill="#FBBC05"/>
<path d="M12.5 5.60417C14.1875 5.60417 15.6875 6.1875 16.8854 7.3125L20.1666 4.03125C18.1771 2.17709 15.5937 1.04167 12.5 1.04167C8.02081 1.04167 4.15623 3.61459 2.27081 7.36459L6.08331 10.3229C6.98956 7.61459 9.52081 5.60417 12.5 5.60417Z" fill="#EA4335"/>
</svg>
