<svg width="60" height="60" viewBox="0 0 60 60" fill="none" xmlns="http://www.w3.org/2000/svg">
<rect x="12" y="35" width="18" height="15" fill="url(#paint0_linear_30_37)"/>
<path d="M21.7396 22.9418L21.4286 22.6949L21.1176 22.9418C16.3067 26.7626 12.6899 30.3296 10.2872 33.6441C7.886 36.9564 6.64288 40.0789 6.64288 43C6.64288 47.0204 8.05674 50.4023 10.8817 53.1109C13.7059 55.8189 17.2337 57.1667 21.4286 57.1667C25.6235 57.1667 29.1513 55.8189 31.9755 53.1109C34.8005 50.4023 36.2143 47.0204 36.2143 43C36.2143 40.0789 34.9712 36.9564 32.57 33.6441C30.1673 30.3296 26.5505 26.7626 21.7396 22.9418ZM27.449 48.9053C27.0252 49.3009 26.5165 49.5 25.8929 49.5C25.2693 49.5 24.7605 49.3009 24.3367 48.9053C23.9142 48.511 23.7143 48.0519 23.7143 47.5C23.7143 46.9482 23.9142 46.489 24.3367 46.0947C24.7605 45.6992 25.2693 45.5 25.8929 45.5C26.5165 45.5 27.0252 45.6992 27.449 46.0947C27.8715 46.489 28.0715 46.9482 28.0715 47.5C28.0715 48.0519 27.8715 48.511 27.449 48.9053ZM25.9822 37.434L27.7494 39.0834L16.875 49.2327L15.1078 47.5834L25.9822 37.434ZM18.5205 40.572C18.0967 40.9676 17.5879 41.1667 16.9643 41.1667C16.3407 41.1667 15.832 40.9676 15.4081 40.572C14.9857 40.1777 14.7857 39.7185 14.7857 39.1667C14.7857 38.6149 14.9857 38.1557 15.4081 37.7614C15.832 37.3658 16.3407 37.1667 16.9643 37.1667C17.5879 37.1667 18.0967 37.3658 18.5205 37.7614C18.943 38.1557 19.1429 38.6149 19.1429 39.1667C19.1429 39.7185 18.943 40.1777 18.5205 40.572Z" fill="white" stroke="black"/>
<rect x="39" y="17" width="13" height="10" fill="url(#paint1_linear_30_37)"/>
<path d="M46.0252 8.49739L45.7142 8.25043L45.4033 8.49739C42.1896 11.0497 39.7657 13.4384 38.1517 15.6649C36.5392 17.8892 35.6904 20.0049 35.6904 22C35.6904 24.7242 36.6504 27.0227 38.5676 28.8609C40.4841 30.6985 42.8784 31.6112 45.7142 31.6112C48.55 31.6112 50.9444 30.6985 52.8609 28.8609C54.7781 27.0227 55.738 24.7242 55.738 22C55.738 20.0049 54.8893 17.8892 53.2768 15.6649C51.6628 13.4384 49.2389 11.0497 46.0252 8.49739ZM49.6142 25.8151C49.3639 26.0486 49.066 26.1667 48.6904 26.1667C48.3148 26.1667 48.0169 26.0486 47.7667 25.8151C47.5178 25.5828 47.4047 25.3204 47.4047 25C47.4047 24.6797 47.5178 24.4173 47.7667 24.185C48.0169 23.9515 48.3148 23.8334 48.6904 23.8334C49.066 23.8334 49.3639 23.9515 49.6141 24.185C49.863 24.4173 49.9761 24.6797 49.9761 25C49.9761 25.3204 49.863 25.5828 49.6142 25.8151ZM48.75 18.5173L49.6838 19.3889L42.6785 25.9272L41.7447 25.0556L48.75 18.5173ZM43.6618 20.2595C43.4116 20.493 43.1136 20.6112 42.738 20.6112C42.3625 20.6112 42.0645 20.493 41.8143 20.2595C41.5654 20.0272 41.4523 19.7648 41.4523 19.4445C41.4523 19.1241 41.5654 18.8617 41.8143 18.6295C42.0645 18.3959 42.3625 18.2778 42.738 18.2778C43.1136 18.2778 43.4116 18.3959 43.6618 18.6295C43.9106 18.8617 44.0238 19.1241 44.0238 19.4445C44.0238 19.7648 43.9106 20.0272 43.6618 20.2595Z" fill="white" stroke="black"/>
<rect x="20" y="8" width="9" height="7" fill="url(#paint2_linear_30_37)"/>
<path d="M25.3109 1.27513L25 1.02817L24.689 1.27513C22.274 3.19318 20.4466 4.99277 19.2269 6.67529C18.0087 8.35565 17.3571 9.96778 17.3571 11.5C17.3571 13.576 18.0902 15.3328 19.5535 16.7359C21.0161 18.1383 22.8437 18.8333 25 18.8333C27.1562 18.8333 28.9838 18.1383 30.4465 16.7359C31.9098 15.3328 32.6428 13.576 32.6428 11.5C32.6428 9.96778 31.9912 8.35565 30.7731 6.67529C29.5534 4.99277 27.726 3.19318 25.3109 1.27513ZM27.8396 14.2699C27.6762 14.4224 27.4837 14.5 27.2321 14.5C26.9805 14.5 26.788 14.4224 26.6246 14.2699C26.4625 14.1186 26.3928 13.9546 26.3928 13.75C26.3928 13.5454 26.4625 13.3814 26.6246 13.2301C26.788 13.0776 26.9805 13 27.2321 13C27.4837 13 27.6762 13.0776 27.8396 13.2301C28.0017 13.3814 28.0714 13.5454 28.0714 13.75C28.0714 13.9546 28.0017 14.1186 27.8396 14.2699ZM27.2768 9.05895L27.794 9.54167L22.7232 14.2744L22.206 13.7917L27.2768 9.05895ZM23.3753 10.1032C23.2119 10.2557 23.0194 10.3333 22.7678 10.3333C22.5163 10.3333 22.3237 10.2557 22.1603 10.1032C21.9983 9.95196 21.9285 9.78796 21.9285 9.58334C21.9285 9.37872 21.9983 9.21472 22.1603 9.06345C22.3237 8.91094 22.5163 8.83334 22.7678 8.83334C23.0194 8.83334 23.2119 8.91094 23.3753 9.06345C23.5374 9.21472 23.6071 9.37872 23.6071 9.58334C23.6071 9.78796 23.5374 9.95196 23.3753 10.1032Z" fill="white" stroke="black"/>
<defs>
<linearGradient id="paint0_linear_30_37" x1="21" y1="35" x2="21" y2="50" gradientUnits="userSpaceOnUse">
<stop stop-color="#720484"/>
<stop offset="1" stop-color="#1A011E"/>
</linearGradient>
<linearGradient id="paint1_linear_30_37" x1="45.5" y1="17" x2="45.5" y2="27" gradientUnits="userSpaceOnUse">
<stop stop-color="#720484"/>
<stop offset="1" stop-color="#1A011E"/>
</linearGradient>
<linearGradient id="paint2_linear_30_37" x1="24.5" y1="8" x2="24.5" y2="15" gradientUnits="userSpaceOnUse">
<stop stop-color="#720484"/>
<stop offset="1" stop-color="#1A011E"/>
</linearGradient>
</defs>
</svg>