<svg width="40" height="40" viewBox="0 0 40 40" fill="none" xmlns="http://www.w3.org/2000/svg">
<mask id="path-1-inside-1_181_15" fill="white">
<path fill-rule="evenodd" clip-rule="evenodd" d="M1.30556 38.6944C2.17593 39.5648 3.22222 40 4.44444 40H35.5556C36.7778 40 37.8241 39.5648 38.6944 38.6944C39.5648 37.8241 40 36.7778 40 35.5556V4.44444C40 3.22222 39.5648 2.17593 38.6944 1.30556C37.8241 0.435185 36.7778 0 35.5556 0H4.44444C3.22222 0 2.17593 0.435185 1.30556 1.30556C0.435185 2.17593 0 3.22222 0 4.44444V35.5556C0 36.7778 0.435185 37.8241 1.30556 38.6944ZM33.3333 31.1111H6.66667L13.3333 22.2222L18.3333 28.8889L25 20L33.3333 31.1111ZM25.2708 14.7292C26.5625 16.0208 28.1389 16.6667 30 16.6667C31.5278 16.6667 32.8889 16.2014 34.0833 15.2708C35.2778 14.3403 36.0694 13.1389 36.4583 11.6667H34.7083C34.3611 12.6667 33.7569 13.4722 32.8958 14.0833C32.0347 14.6944 31.0694 15 30 15C28.6111 15 27.4306 14.5139 26.4583 13.5417C25.4861 12.5694 25 11.3889 25 10C25 8.61111 25.4861 7.43056 26.4583 6.45833C27.4306 5.48611 28.6111 5 30 5C30.9028 5 31.7396 5.22222 32.5104 5.66667C33.2812 6.11111 33.8889 6.72222 34.3333 7.5H30.8333V9.16667H36.6667V3.33333H35V5.625C34.375 4.88889 33.625 4.32292 32.75 3.92708C31.875 3.53125 30.9583 3.33333 30 3.33333C28.1389 3.33333 26.5625 3.97917 25.2708 5.27083C23.9792 6.5625 23.3333 8.13889 23.3333 10C23.3333 11.8611 23.9792 13.4375 25.2708 14.7292Z"/>
</mask>
<path fill-rule="evenodd" clip-rule="evenodd" d="M1.30556 38.6944C2.17593 39.5648 3.22222 40 4.44444 40H35.5556C36.7778 40 37.8241 39.5648 38.6944 38.6944C39.5648 37.8241 40 36.7778 40 35.5556V4.44444C40 3.22222 39.5648 2.17593 38.6944 1.30556C37.8241 0.435185 36.7778 0 35.5556 0H4.44444C3.22222 0 2.17593 0.435185 1.30556 1.30556C0.435185 2.17593 0 3.22222 0 4.44444V35.5556C0 36.7778 0.435185 37.8241 1.30556 38.6944ZM33.3333 31.1111H6.66667L13.3333 22.2222L18.3333 28.8889L25 20L33.3333 31.1111ZM25.2708 14.7292C26.5625 16.0208 28.1389 16.6667 30 16.6667C31.5278 16.6667 32.8889 16.2014 34.0833 15.2708C35.2778 14.3403 36.0694 13.1389 36.4583 11.6667H34.7083C34.3611 12.6667 33.7569 13.4722 32.8958 14.0833C32.0347 14.6944 31.0694 15 30 15C28.6111 15 27.4306 14.5139 26.4583 13.5417C25.4861 12.5694 25 11.3889 25 10C25 8.61111 25.4861 7.43056 26.4583 6.45833C27.4306 5.48611 28.6111 5 30 5C30.9028 5 31.7396 5.22222 32.5104 5.66667C33.2812 6.11111 33.8889 6.72222 34.3333 7.5H30.8333V9.16667H36.6667V3.33333H35V5.625C34.375 4.88889 33.625 4.32292 32.75 3.92708C31.875 3.53125 30.9583 3.33333 30 3.33333C28.1389 3.33333 26.5625 3.97917 25.2708 5.27083C23.9792 6.5625 23.3333 8.13889 23.3333 10C23.3333 11.8611 23.9792 13.4375 25.2708 14.7292Z" fill="white"/>
<path d="M1.30556 38.6944L0.598448 39.4016L0.598449 39.4016L1.30556 38.6944ZM38.6944 38.6944L39.4016 39.4016L39.4016 39.4016L38.6944 38.6944ZM38.6944 1.30556L39.4016 0.598449L39.4016 0.598448L38.6944 1.30556ZM1.30556 1.30556L2.01266 2.01266L2.01266 2.01266L1.30556 1.30556ZM6.66667 31.1111L5.86667 30.5111L4.66667 32.1111H6.66667V31.1111ZM33.3333 31.1111V32.1111H35.3333L34.1333 30.5111L33.3333 31.1111ZM13.3333 22.2222L14.1333 21.6222L13.3333 20.5556L12.5333 21.6222L13.3333 22.2222ZM18.3333 28.8889L17.5333 29.4889L18.3333 30.5556L19.1333 29.4889L18.3333 28.8889ZM25 20L25.8 19.4L25 18.3333L24.2 19.4L25 20ZM25.2708 14.7292L25.9779 14.0221L25.9779 14.0221L25.2708 14.7292ZM34.0833 15.2708L33.4688 14.482L33.4688 14.482L34.0833 15.2708ZM36.4583 11.6667L37.4252 11.9221L37.7568 10.6667H36.4583V11.6667ZM34.7083 11.6667V10.6667H33.997L33.7637 11.3387L34.7083 11.6667ZM32.8958 14.0833L33.4746 14.8988L33.4746 14.8988L32.8958 14.0833ZM26.4583 13.5417L27.1654 12.8346L27.1654 12.8346L26.4583 13.5417ZM26.4583 6.45833L27.1654 7.16544L27.1654 7.16544L26.4583 6.45833ZM32.5104 5.66667L33.0099 4.80035L33.0099 4.80035L32.5104 5.66667ZM34.3333 7.5V8.5H36.0565L35.2016 7.00386L34.3333 7.5ZM30.8333 7.5V6.5H29.8333V7.5H30.8333ZM30.8333 9.16667H29.8333V10.1667H30.8333V9.16667ZM36.6667 9.16667V10.1667H37.6667V9.16667H36.6667ZM36.6667 3.33333H37.6667V2.33333H36.6667V3.33333ZM35 3.33333V2.33333H34V3.33333H35ZM35 5.625L34.2377 6.27223L36 8.34782V5.625H35ZM25.2708 5.27083L25.9779 5.97794L25.9779 5.97794L25.2708 5.27083ZM4.44444 39C3.48955 39 2.69699 38.6717 2.01266 37.9873L0.598449 39.4016C1.65486 40.458 2.9549 41 4.44444 41V39ZM35.5556 39H4.44444V41H35.5556V39ZM37.9873 37.9873C37.303 38.6717 36.5105 39 35.5556 39V41C37.0451 41 38.3451 40.458 39.4016 39.4016L37.9873 37.9873ZM39 35.5556C39 36.5105 38.6717 37.303 37.9873 37.9873L39.4016 39.4016C40.458 38.3451 41 37.0451 41 35.5556H39ZM39 4.44444V35.5556H41V4.44444H39ZM37.9873 2.01266C38.6717 2.69699 39 3.48955 39 4.44444H41C41 2.9549 40.458 1.65486 39.4016 0.598449L37.9873 2.01266ZM35.5556 1C36.5105 1 37.303 1.32833 37.9873 2.01266L39.4016 0.598448C38.3451 -0.457961 37.0451 -1 35.5556 -1V1ZM4.44444 1H35.5556V-1H4.44444V1ZM2.01266 2.01266C2.69699 1.32833 3.48955 1 4.44444 1V-1C2.9549 -1 1.65486 -0.457962 0.598449 0.598449L2.01266 2.01266ZM1 4.44444C1 3.48955 1.32833 2.69699 2.01266 2.01266L0.598449 0.598449C-0.457962 1.65486 -1 2.9549 -1 4.44444H1ZM1 35.5556V4.44444H-1V35.5556H1ZM2.01266 37.9873C1.32833 37.303 1 36.5105 1 35.5556H-1C-1 37.0451 -0.457961 38.3451 0.598448 39.4016L2.01266 37.9873ZM6.66667 32.1111H33.3333V30.1111H6.66667V32.1111ZM12.5333 21.6222L5.86667 30.5111L7.46667 31.7111L14.1333 22.8222L12.5333 21.6222ZM19.1333 28.2889L14.1333 21.6222L12.5333 22.8222L17.5333 29.4889L19.1333 28.2889ZM24.2 19.4L17.5333 28.2889L19.1333 29.4889L25.8 20.6L24.2 19.4ZM34.1333 30.5111L25.8 19.4L24.2 20.6L32.5333 31.7111L34.1333 30.5111ZM30 15.6667C28.3985 15.6667 27.0781 15.1223 25.9779 14.0221L24.5637 15.4363C26.0469 16.9194 27.8793 17.6667 30 17.6667V15.6667ZM33.4688 14.482C32.4517 15.2744 31.3073 15.6667 30 15.6667V17.6667C31.7483 17.6667 33.3261 17.1284 34.6979 16.0597L33.4688 14.482ZM35.4915 11.4113C35.1581 12.6732 34.4895 13.6867 33.4688 14.482L34.6979 16.0597C36.066 14.9938 36.9807 13.6046 37.4252 11.9221L35.4915 11.4113ZM34.7083 12.6667H36.4583V10.6667H34.7083V12.6667ZM33.4746 14.8988C34.5059 14.1669 35.2377 13.1908 35.653 11.9947L33.7637 11.3387C33.4845 12.1426 33.008 12.7775 32.3171 13.2678L33.4746 14.8988ZM30 16C31.274 16 32.442 15.6316 33.4746 14.8988L32.3171 13.2678C31.6274 13.7573 30.8649 14 30 14V16ZM25.7512 14.2488C26.9131 15.4107 28.3489 16 30 16V14C28.8733 14 27.948 13.6171 27.1654 12.8346L25.7512 14.2488ZM24 10C24 11.6511 24.5893 13.0869 25.7512 14.2488L27.1654 12.8346C26.3829 12.052 26 11.1267 26 10H24ZM25.7512 5.75123C24.5893 6.91311 24 8.34892 24 10H26C26 8.8733 26.3829 7.948 27.1654 7.16544L25.7512 5.75123ZM30 4C28.3489 4 26.9131 4.58934 25.7512 5.75123L27.1654 7.16544C27.948 6.38288 28.8733 6 30 6V4ZM33.0099 4.80035C32.0849 4.26699 31.0754 4 30 4V6C30.7301 6 31.3943 6.17745 32.0109 6.53298L33.0099 4.80035ZM35.2016 7.00386C34.6698 6.07329 33.9354 5.33396 33.0099 4.80035L32.0109 6.53298C32.6271 6.88826 33.108 7.37115 33.4651 7.99614L35.2016 7.00386ZM30.8333 8.5H34.3333V6.5H30.8333V8.5ZM31.8333 9.16667V7.5H29.8333V9.16667H31.8333ZM36.6667 8.16667H30.8333V10.1667H36.6667V8.16667ZM35.6667 3.33333V9.16667H37.6667V3.33333H35.6667ZM35 4.33333H36.6667V2.33333H35V4.33333ZM36 5.625V3.33333H34V5.625H36ZM32.3378 4.83819C33.0773 5.1727 33.7079 5.64825 34.2377 6.27223L35.7623 4.97777C35.0421 4.12953 34.1727 3.47313 33.1622 3.01598L32.3378 4.83819ZM30 4.33333C30.8159 4.33333 31.5921 4.50082 32.3378 4.83819L33.1622 3.01598C32.1579 2.56168 31.1008 2.33333 30 2.33333V4.33333ZM25.9779 5.97794C27.0781 4.87774 28.3985 4.33333 30 4.33333V2.33333C27.8793 2.33333 26.0469 3.0806 24.5637 4.56373L25.9779 5.97794ZM24.3333 10C24.3333 8.3985 24.8777 7.07814 25.9779 5.97794L24.5637 4.56373C23.0806 6.04686 22.3333 7.87928 22.3333 10H24.3333ZM25.9779 14.0221C24.8777 12.9219 24.3333 11.6015 24.3333 10H22.3333C22.3333 12.1207 23.0806 13.9531 24.5637 15.4363L25.9779 14.0221Z" fill="black" mask="url(#path-1-inside-1_181_15)"/>
</svg>
