<svg width="30" height="30" viewBox="0 0 30 30" fill="none" xmlns="http://www.w3.org/2000/svg">
<mask id="mask0_173_3" style="mask-type:luminance" maskUnits="userSpaceOnUse" x="0" y="0" width="30" height="30">
<path d="M30 0H0V30H30V0Z" fill="white"/>
</mask>
<g mask="url(#mask0_173_3)">
<path d="M13.6393 2.46939L13.9064 1L12.4385 1.27524C9.12245 1.897 6.37187 3.503 4.22582 6.07594C2.07924 8.64953 1 11.64 1 15.0056C1 16.9387 1.36903 18.7655 2.11333 20.4751C2.84789 22.1622 3.84567 23.6414 5.10746 24.9031C6.36921 26.1648 7.84826 27.1627 9.53556 27.8972C11.245 28.6414 13.0718 29.0105 15.0049 29.0105C18.3704 29.0105 21.3654 27.9313 23.9489 25.7862C26.5346 23.6391 28.1371 20.8857 28.7366 17.5652L29 16.106L27.5411 16.3712C25.5799 16.7278 23.6746 16.6184 21.8111 16.0465C19.9506 15.4756 18.3239 14.4939 16.9203 13.0902C15.5166 11.6867 14.5349 10.0599 13.964 8.19947C13.3921 6.3359 13.2827 4.43063 13.6393 2.46939Z" fill="white" stroke="black" stroke-width="2"/>
</g>
</svg>
