<svg width="30" height="30" viewBox="0 0 30 30" fill="none" xmlns="http://www.w3.org/2000/svg">
<g clip-path="url(#clip0_11_4)">
<path d="M15.0464 3.92889L15.3063 2.49936L13.8782 2.76713C10.6521 3.37203 7.97614 4.93446 5.88831 7.4376C3.79996 9.94137 2.75 12.8507 2.75 16.125C2.75 18.0057 3.10902 19.7829 3.83313 21.4461C4.54776 23.0875 5.51847 24.5265 6.74603 25.754C7.97355 26.9815 9.41248 27.9523 11.054 28.6669C12.7171 29.3909 14.4943 29.75 16.375 29.75C19.6492 29.75 22.5629 28.7001 25.0763 26.6131C27.5919 24.5243 29.1509 21.8456 29.7341 18.6152L29.9904 17.1956L28.5711 17.4536C26.6631 17.8005 24.8095 17.6941 22.9965 17.1377C21.1865 16.5823 19.6039 15.6272 18.2384 14.2616C16.8728 12.8961 15.9177 11.3135 15.3623 9.50352C14.8059 7.6905 14.6995 5.83692 15.0464 3.92889Z" fill="white" stroke="black" stroke-width="2"/>
</g>
<defs>
<clipPath id="clip0_11_4">
<rect width="30" height="30" fill="white"/>
</clipPath>
</defs>
</svg>
