<svg width="26" height="30" viewBox="0 0 26 30" fill="none" xmlns="http://www.w3.org/2000/svg">
<path d="M25.8812 0.938246C21.8301 -0.641052 7.14576 -1.2249 7.12115 7.53684C2.83692 10.2798 0 14.7533 0 19.535C0 25.3162 4.686 30 10.469 30C16.252 30 20.938 25.314 20.938 19.535C20.9385 17.4132 20.2939 15.3413 19.0899 13.5941C17.8859 11.8469 16.1792 10.5069 14.1962 9.75189C13.4383 9.45885 11.7919 8.94211 10.477 9.05306C8.60113 10.2458 6.31361 12.698 5.23181 15.1403C6.83974 13.2107 9.3532 12.3665 11.5794 12.7284C13.1933 12.9932 14.6606 13.8228 15.7195 15.0692C16.7783 16.3157 17.3598 17.8978 17.3602 19.5332C17.3602 23.3428 14.2593 26.4285 10.4498 26.4285C9.45256 26.4303 8.4669 26.2151 7.56116 25.798C6.65542 25.3808 5.85128 24.7716 5.20452 24.0125C3.34784 21.8266 2.86913 19.4567 3.2521 17.1406C4.57504 9.0204 14.2043 4.40107 21.3626 2.62671C19.0272 3.8633 14.8159 5.89267 11.868 8.10727C20.4633 11.4265 21.8547 4.17916 25.8812 0.938246Z" fill="#47A141"/>
</svg>
