<svg width="75" height="75" viewBox="0 0 75 75" fill="none" xmlns="http://www.w3.org/2000/svg">
<circle cx="37.5" cy="37.5" r="35.5" fill="black" fill-opacity="0.75" stroke="black" stroke-width="4"/>
<path d="M50.8812 23.9382C46.8301 22.3589 32.1458 21.7751 32.1212 30.5368C27.8369 33.2798 25 37.7533 25 42.535C25 48.3162 29.686 53 35.469 53C41.252 53 45.938 48.314 45.938 42.535C45.9385 40.4132 45.2939 38.3413 44.0899 36.5941C42.8859 34.8469 41.1792 33.5069 39.1962 32.7519C38.4383 32.4588 36.7919 31.9421 35.477 32.0531C33.6011 33.2458 31.3136 35.698 30.2318 38.1403C31.8397 36.2107 34.3532 35.3665 36.5794 35.7284C38.1933 35.9932 39.6606 36.8228 40.7195 38.0692C41.7783 39.3157 42.3598 40.8978 42.3602 42.5332C42.3602 46.3428 39.2593 49.4285 35.4498 49.4285C34.4526 49.4303 33.4669 49.2151 32.5612 48.798C31.6554 48.3808 30.8513 47.7716 30.2045 47.0125C28.3478 44.8266 27.8691 42.4567 28.2521 40.1406C29.575 32.0204 39.2043 27.4011 46.3626 25.6267C44.0272 26.8633 39.8159 28.8927 36.868 31.1073C45.4633 34.4265 46.8547 27.1792 50.8812 23.9382Z" fill="#47A141"/>
</svg>
