<svg width="50" height="50" viewBox="0 0 50 50" fill="none" xmlns="http://www.w3.org/2000/svg">
<path d="M22.1667 26.8333V27.3333H22.6667H26.8333H27.3333V26.8333V6V5.5H26.8333H22.6667H22.1667V6V26.8333ZM12.9161 10.1256L12.5869 9.79641L12.235 10.1013C10.0992 11.9524 8.44132 14.1445 7.26533 16.6747C6.08813 19.2074 5.5 21.9011 5.5 24.75C5.5 27.3856 6.00794 29.8756 7.0259 32.2151C8.0397 34.5451 9.4202 36.5856 11.1673 38.3327C12.9144 40.0798 14.9549 41.4603 17.2849 42.4741C19.6244 43.4921 22.1144 44 24.75 44C27.4193 44 29.9268 43.4924 32.2672 42.4741C34.5976 41.4601 36.6302 40.0791 38.3606 38.3309C40.0897 36.584 41.4608 34.544 42.4741 32.2151C43.4921 29.8756 44 27.3856 44 24.75C44 21.9011 43.4119 19.2074 42.2347 16.6747C41.0587 14.1445 39.4008 11.9524 37.265 10.1013L36.9131 9.79641L36.5839 10.1256L33.5631 13.1464L33.1542 13.5554L33.6179 13.9009C35.323 15.1714 36.615 16.7557 37.4997 18.6587C38.3886 20.5706 38.8333 22.5992 38.8333 24.75C38.8333 28.6462 37.4703 31.9568 34.7339 34.71C31.9992 37.4616 28.6812 38.8333 24.75 38.8333C20.8548 38.8333 17.5445 37.4624 14.7911 34.7089C12.0376 31.9555 10.6667 28.6452 10.6667 24.75C10.6667 22.6007 11.1195 20.5732 12.0248 18.662C12.9281 16.7549 14.2139 15.1688 15.8859 13.8981L16.3419 13.5515L15.9369 13.1464L12.9161 10.1256Z" fill="white" stroke="black"/>
</svg>