<svg width="26" height="25" viewBox="0 0 26 25" fill="none" xmlns="http://www.w3.org/2000/svg">
<path d="M12.5 25C10.7708 25 9.14583 24.6719 7.625 24.0156C6.10417 23.3594 4.78125 22.4688 3.65625 21.3438C2.53125 20.2188 1.64062 18.8958 0.984375 17.375C0.328125 15.8542 0 14.2292 0 12.5C0 10.7708 0.328125 9.14583 0.984375 7.625C1.64062 6.10417 2.53125 4.78125 3.65625 3.65625C4.78125 2.53125 6.10417 1.64062 7.625 0.984375C9.14583 0.328125 10.7708 0 12.5 0C15.5417 0 18.2031 0.953125 20.4844 2.85938C22.7656 4.76562 24.1875 7.15625 24.75 10.0312H22.1875C21.7917 8.51042 21.0781 7.15104 20.0469 5.95312C19.0156 4.75521 17.75 3.85417 16.25 3.25V3.75C16.25 4.4375 16.0052 5.02604 15.5156 5.51562C15.026 6.00521 14.4375 6.25 13.75 6.25H11.25V8.75C11.25 9.10417 11.1302 9.40104 10.8906 9.64062C10.651 9.88021 10.3542 10 10 10H7.5V12.5H10V16.25H8.75L2.75 10.25C2.6875 10.625 2.63021 11 2.57812 11.375C2.52604 11.75 2.5 12.125 2.5 12.5C2.5 15.2292 3.45833 17.5729 5.375 19.5312C7.29167 21.4896 9.66667 22.4792 12.5 22.5V25ZM23.875 24.375L19.875 20.375C19.4375 20.625 18.9688 20.8333 18.4688 21C17.9688 21.1667 17.4375 21.25 16.875 21.25C15.3125 21.25 13.9844 20.7031 12.8906 19.6094C11.7969 18.5156 11.25 17.1875 11.25 15.625C11.25 14.0625 11.7969 12.7344 12.8906 11.6406C13.9844 10.5469 15.3125 10 16.875 10C18.4375 10 19.7656 10.5469 20.8594 11.6406C21.9531 12.7344 22.5 14.0625 22.5 15.625C22.5 16.1875 22.4167 16.7188 22.25 17.2188C22.0833 17.7188 21.875 18.1875 21.625 18.625L25.625 22.625L23.875 24.375ZM16.875 18.75C17.75 18.75 18.4896 18.4479 19.0938 17.8438C19.6979 17.2396 20 16.5 20 15.625C20 14.75 19.6979 14.0104 19.0938 13.4062C18.4896 12.8021 17.75 12.5 16.875 12.5C16 12.5 15.2604 12.8021 14.6562 13.4062C14.0521 14.0104 13.75 14.75 13.75 15.625C13.75 16.5 14.0521 17.2396 14.6562 17.8438C15.2604 18.4479 16 18.75 16.875 18.75Z" fill="white"/>
</svg>
