<svg width="50" height="50" viewBox="0 0 50 50" fill="none" xmlns="http://www.w3.org/2000/svg">
<path d="M18.9336 39.1047L18.8965 38.8075L18.617 38.7C18.1926 38.5368 17.7943 38.3415 17.4214 38.1146L17.1615 38.5417L17.4214 38.1146C17.0339 37.8787 16.6547 37.6259 16.2837 37.356L16.0557 37.1903L15.7959 37.2995L10.0038 39.7331L4.71659 30.6006L9.72894 26.8049L9.9637 26.6271L9.92206 26.3355C9.89039 26.1139 9.875 25.9032 9.875 25.7031V24.2969C9.875 24.0968 9.89039 23.8861 9.92206 23.6645L9.9637 23.3729L9.72894 23.1951L4.71659 19.3994L10.0038 10.2669L15.7959 12.7005L16.0557 12.8097L16.2837 12.644C16.6517 12.3763 17.037 12.125 17.4394 11.8902C17.8382 11.6576 18.235 11.4594 18.6298 11.2949L18.8976 11.1833L18.9336 10.8954L19.7122 4.66667H30.2878L31.0664 10.8954L31.1035 11.1925L31.383 11.3C31.8074 11.4632 32.2057 11.6585 32.5786 11.8854C32.9661 12.1213 33.3453 12.3741 33.7163 12.644L33.9443 12.8097L34.2041 12.7005L39.9962 10.2669L45.2834 19.3994L40.2711 23.1951L40.0363 23.3729L40.0779 23.6645C40.1096 23.8861 40.125 24.0968 40.125 24.2969V25.7031C40.125 25.8772 40.0983 26.0652 40.0401 26.2689L39.946 26.5981L40.219 26.8049L45.2313 30.6006L39.9448 39.7319L34.2055 37.3L33.9451 37.1897L33.7163 37.356C33.3482 37.6237 32.963 37.875 32.5606 38.1098C32.1618 38.3424 31.765 38.5406 31.3702 38.7051L31.1024 38.8167L31.0664 39.1047L30.2878 45.3333H19.7122L18.9336 39.1047ZM25.1042 32.7917C27.2506 32.7917 29.0966 32.0272 30.614 30.5098C32.1314 28.9924 32.8958 27.1465 32.8958 25C32.8958 22.8535 32.1314 21.0076 30.614 19.4902C29.0966 17.9728 27.2506 17.2083 25.1042 17.2083C22.9254 17.2083 21.0688 17.9712 19.5662 19.4924C18.0668 21.0102 17.3125 22.8555 17.3125 25C17.3125 27.1445 18.0668 28.9898 19.5662 30.5076C21.0688 32.0288 22.9254 32.7917 25.1042 32.7917Z" fill="white" stroke="black"/>
</svg>