<svg width="60" height="60" viewBox="0 0 60 60" fill="none" xmlns="http://www.w3.org/2000/svg">
<path fill-rule="evenodd" clip-rule="evenodd" d="M30 55C26.5417 55 23.5938 53.7812 21.1562 51.3438C18.7188 48.9062 17.5 45.9583 17.5 42.5C17.5 40.5 17.9375 38.6354 18.8125 36.9062C19.6875 35.1771 20.9167 33.7083 22.5 32.5V12.5C22.5 10.4167 23.2292 8.64583 24.6875 7.1875C26.1458 5.72917 27.9167 5 30 5C32.0833 5 33.8542 5.72917 35.3125 7.1875C36.7708 8.64583 37.5 10.4167 37.5 12.5V32.5C39.0833 33.7083 40.3125 35.1771 41.1875 36.9062C42.0625 38.6354 42.5 40.5 42.5 42.5C42.5 45.9583 41.2812 48.9062 38.8438 51.3438C36.4062 53.7812 33.4583 55 30 55ZM32.5 27V25V24.5V24V22.5V17.5V15V12.5C32.5 11.7917 32.2604 11.1979 31.7812 10.7188C31.3021 10.2396 30.7083 10 30 10C29.2917 10 28.6979 10.2396 28.2188 10.7188C27.7396 11.1979 27.5 11.7917 27.5 12.5V27V27.5V35.3984C24.3061 36.4482 22 39.4548 22 43C22 47.4183 25.5817 51 30 51C34.4183 51 38 47.4183 38 43C38 39.4548 35.6939 36.4482 32.5 35.3984V27.5V27Z" fill="white"/>
<rect x="39" y="23" width="8" height="2" fill="white"/>
<rect x="39" y="17" width="8" height="2" fill="white"/>
<rect x="39" y="11" width="8" height="2" fill="white"/>
<rect x="39" y="14" width="4" height="2" fill="white"/>
<rect x="39" y="20" width="4" height="2" fill="white"/>
<rect x="39" y="26" width="4" height="2" fill="white"/>
<rect x="39" y="29" width="8" height="2" fill="white"/>
<path d="M36.14 43.0001C36.14 46 34.64 48 34.14 48C33.64 48 34.64 46 34.64 43C34.64 40 33.64 38 34.14 38C34.64 38 36.14 40 36.14 43.0001Z" fill="white"/>
</svg>
