<svg width="60" height="41" viewBox="0 0 60 41" fill="none" xmlns="http://www.w3.org/2000/svg">
<path d="M1.12455 20.0474L1.05228 20.2308L1.12455 20.4141C3.46852 26.3608 7.24994 31.1105 12.4626 34.6508C17.6743 38.1904 23.456 39.9615 29.7948 39.9615C36.1336 39.9615 41.9154 38.1904 47.127 34.6508C52.3398 31.1105 56.1212 26.3608 58.4651 20.4141L58.5374 20.2308L58.4651 20.0474C56.1212 14.1007 52.3398 9.35104 47.127 5.81074C41.9154 2.27116 36.1336 0.5 29.7948 0.5C23.456 0.5 17.6743 2.27116 12.4626 5.81074C7.24994 9.35104 3.46852 14.1007 1.12455 20.0474ZM37.6144 28.0503C35.4656 30.1991 32.8689 31.2692 29.7948 31.2692C26.7208 31.2692 24.1241 30.1991 21.9753 28.0503C19.8266 25.9015 18.7564 23.3048 18.7564 20.2308C18.7564 17.1567 19.8266 14.56 21.9753 12.4112C24.1241 10.2625 26.7208 9.19231 29.7948 9.19231C32.8689 9.19231 35.4656 10.2625 37.6144 12.4112C39.7631 14.56 40.8333 17.1567 40.8333 20.2308C40.8333 23.3048 39.7631 25.9015 37.6144 28.0503ZM24.5374 25.4882C25.9784 26.9292 27.7407 27.6538 29.7948 27.6538C31.849 27.6538 33.6113 26.9292 35.0522 25.4882C36.4932 24.0472 37.2179 22.2849 37.2179 20.2308C37.2179 18.1766 36.4932 16.4144 35.0522 14.9734C33.6113 13.5324 31.849 12.8077 29.7948 12.8077C27.7407 12.8077 25.9784 13.5324 24.5374 14.9734C23.0965 16.4144 22.3718 18.1766 22.3718 20.2308C22.3718 22.2849 23.0965 24.0472 24.5374 25.4882Z" fill="white" stroke="black"/>
<path d="M5.07185 19.6231L5.36613 19.5573L5.44521 19.2663C5.80517 17.9416 6.51967 16.8783 7.59625 16.0601C8.67395 15.241 9.88838 14.8333 11.2564 14.8333C12.9442 14.8333 14.3587 15.4155 15.5299 16.5866C16.7011 17.7578 17.2832 19.1723 17.2832 20.8601V21.3055L17.7256 21.3568C18.6768 21.4671 19.4531 21.8713 20.0775 22.5781C20.7035 23.2866 21.0128 24.1051 21.0128 25.0559C21.0128 26.0903 20.6565 26.9534 19.9355 27.6744C19.2145 28.3954 18.3514 28.7517 17.317 28.7517H6.12821C4.84328 28.7517 3.76082 28.3124 2.85287 27.4255C1.94786 26.5416 1.5 25.4744 1.5 24.1935C1.5 23.0902 1.82958 22.1178 2.49164 21.2585C3.14981 20.4043 4.00346 19.8621 5.07185 19.6231Z" fill="url(#paint0_linear_30_51)" stroke="black"/>
<path d="M31.8504 28.6791L32.1447 28.6133L32.2238 28.3223C32.4866 27.355 33.0068 26.5811 33.792 25.9843C34.5784 25.3867 35.4626 25.0898 36.4615 25.0898C37.6948 25.0898 38.7237 25.5136 39.5783 26.3681C40.4328 27.2227 40.8566 28.2516 40.8566 29.4849V29.9302L41.2991 29.9815C41.9822 30.0607 42.536 30.3494 42.9837 30.8561C43.4329 31.3646 43.6538 31.9489 43.6538 32.6317C43.6538 33.3747 43.3995 33.9901 42.8825 34.5072C42.3654 35.0242 41.75 35.2786 41.007 35.2786H32.6154C31.684 35.2786 30.9036 34.9616 30.2462 34.3195C29.5918 33.6803 29.2692 32.9122 29.2692 31.9849C29.2692 31.1846 29.5075 30.4822 29.987 29.86C30.4625 29.2427 31.0773 28.852 31.8504 28.6791Z" fill="url(#paint1_linear_30_51)" stroke="black"/>
<path d="M32.8061 7.49027L33.1004 7.42445L33.1795 7.13345C33.6366 5.45135 34.5453 4.09857 35.9133 3.05892C37.2823 2.01842 38.827 1.5 40.5641 1.5C42.7065 1.5 44.5066 2.24047 45.9944 3.72826C47.4821 5.21605 48.2226 7.01614 48.2226 9.15851V9.60389L48.665 9.65518C49.8843 9.79655 50.8829 10.3164 51.6842 11.2232C52.4869 12.1318 52.8846 13.1843 52.8846 14.4033C52.8846 15.729 52.4263 16.8398 51.5013 17.7647C50.5764 18.6897 49.4656 19.148 48.1399 19.148H34.1538C32.5154 19.148 31.1309 18.5863 29.9723 17.4547C28.8167 16.326 28.2436 14.9596 28.2436 13.3252C28.2436 11.9189 28.6645 10.6765 29.5091 9.58023C30.3499 8.48903 31.4425 7.7953 32.8061 7.49027Z" fill="url(#paint2_linear_30_51)" stroke="black"/>
<defs>
<linearGradient id="paint0_linear_30_51" x1="11.2564" y1="14.3333" x2="11.2564" y2="29.2517" gradientUnits="userSpaceOnUse">
<stop stop-color="#720484"/>
<stop offset="1" stop-color="#1A011E"/>
</linearGradient>
<linearGradient id="paint1_linear_30_51" x1="36.4615" y1="24.5898" x2="36.4615" y2="35.7786" gradientUnits="userSpaceOnUse">
<stop stop-color="#720484"/>
<stop offset="1" stop-color="#1A011E"/>
</linearGradient>
<linearGradient id="paint2_linear_30_51" x1="40.5641" y1="1" x2="40.5641" y2="19.648" gradientUnits="userSpaceOnUse">
<stop stop-color="#720484"/>
<stop offset="1" stop-color="#1A011E"/>
</linearGradient>
</defs>
</svg>
