<svg width="70" height="70" viewBox="0 0 70 70" fill="none" xmlns="http://www.w3.org/2000/svg">
<mask id="path-1-inside-1_30_26" fill="white">
<path fill-rule="evenodd" clip-rule="evenodd" d="M42.9254 15.1984H27.084V35H32.5295C32.5295 35 32.5295 35 32.5295 35C32.5295 33.633 33.6377 32.5248 35.0047 32.5248C36.3717 32.5248 37.4799 33.633 37.4799 35C37.4799 35 37.4799 35 37.4799 35H42.9254V15.1984Z"/>
</mask>
<path fill-rule="evenodd" clip-rule="evenodd" d="M42.9254 15.1984H27.084V35H32.5295C32.5295 35 32.5295 35 32.5295 35C32.5295 33.633 33.6377 32.5248 35.0047 32.5248C36.3717 32.5248 37.4799 33.633 37.4799 35C37.4799 35 37.4799 35 37.4799 35H42.9254V15.1984Z" fill="url(#paint0_linear_30_26)"/>
<path d="M27.084 15.1984V14.7984H26.684V15.1984H27.084ZM42.9254 15.1984H43.3254V14.7984H42.9254V15.1984ZM27.084 35H26.684V35.4H27.084V35ZM32.5295 35V35.4H32.9295V35H32.5295ZM37.4799 35H37.0799V35.4H37.4799V35ZM42.9254 35V35.4H43.3254V35H42.9254ZM27.084 15.5984H42.9254V14.7984H27.084V15.5984ZM27.484 35V15.1984H26.684V35H27.484ZM32.5295 34.6H27.084V35.4H32.5295V34.6ZM32.9295 35C32.9295 35 32.9295 35 32.9295 35V35C32.9295 35 32.9295 35 32.9295 35V35V35V35V35C32.9295 35 32.9295 35 32.9295 35V35C32.9295 35 32.9295 35 32.9295 35H32.1295C32.1295 35 32.1295 35 32.1295 35V35C32.1295 35 32.1295 35 32.1295 35V35V35V35V35C32.1295 35 32.1295 35 32.1295 35V35C32.1295 35 32.1295 35 32.1295 35H32.9295ZM32.9295 35C32.9295 33.8539 33.8586 32.9248 35.0047 32.9248V32.1248C33.4168 32.1248 32.1295 33.4121 32.1295 35H32.9295ZM35.0047 32.9248C36.1508 32.9248 37.0799 33.8539 37.0799 35H37.8799C37.8799 33.4121 36.5926 32.1248 35.0047 32.1248V32.9248ZM37.0799 35C37.0799 35 37.0799 35 37.0799 35V35C37.0799 35 37.0799 35 37.0799 35V35V35V35V35C37.0799 35 37.0799 35 37.0799 35V35C37.0799 35 37.0799 35 37.0799 35H37.8799C37.8799 35 37.8799 35 37.8799 35V35C37.8799 35 37.8799 35 37.8799 35V35V35V35V35C37.8799 35 37.8799 35 37.8799 35V35C37.8799 35 37.8799 35 37.8799 35H37.0799ZM42.9254 34.6H37.4799V35.4H42.9254V34.6ZM42.5254 15.1984V35H43.3254V15.1984H42.5254Z" fill="white" mask="url(#path-1-inside-1_30_26)"/>
<path d="M34.5348 54.4235L35.0047 55.7157L35.4746 54.4235L42.4755 35.1709L42.5377 35L42.4755 34.8291L35.4746 15.5765L35.0047 14.2843L34.5348 15.5765L27.5339 34.8291L27.4717 35L27.5339 35.1709L34.5348 54.4235ZM36.4014 36.3967C35.9945 36.8035 35.5365 36.9941 35.0047 36.9941C34.4729 36.9941 34.0149 36.8035 33.608 36.3967C33.3352 36.1239 33.168 35.846 33.0876 35.5315L33.528 35.5243L35.0129 35.5L36.9222 35.4687C36.8402 35.8152 36.6692 36.1288 36.4014 36.3967ZM52.1535 52.1488C49.7783 54.5239 47.1005 56.3009 44.1183 57.4853C41.1262 58.6735 38.0893 59.2658 35.0047 59.2658C31.9201 59.2658 28.8832 58.6735 25.8911 57.4853C22.9089 56.3009 20.231 54.5239 17.8559 52.1488C15.4808 49.7737 13.7038 47.0958 12.5194 44.1136C11.3312 41.1215 10.7389 38.0846 10.7389 35C10.7389 31.9154 11.3312 28.8785 12.5194 25.8864C13.7038 22.9042 15.4808 20.2263 17.8559 17.8512C20.231 15.4761 22.9089 13.6991 25.8911 12.5147C28.8832 11.3265 31.9201 10.7342 35.0047 10.7342C38.0893 10.7342 41.1262 11.3265 44.1183 12.5147C47.1005 13.6991 49.7783 15.4761 52.1535 17.8512C54.5286 20.2263 56.3056 22.9042 57.49 25.8864C58.6782 28.8785 59.2705 31.9154 59.2705 35C59.2705 38.0846 58.6782 41.1215 57.49 44.1136C56.3056 47.0958 54.5286 49.7737 52.1535 52.1488Z" fill="white" stroke="black"/>
<path fill-rule="evenodd" clip-rule="evenodd" d="M32.5097 35L37.4799 35C37.4799 36.3944 36.3673 37.5247 34.9948 37.5247C33.6223 37.5247 32.5097 36.3944 32.5097 35Z" fill="white"/>
<defs>
<linearGradient id="paint0_linear_30_26" x1="35.0047" y1="15.1984" x2="35.0047" y2="35" gradientUnits="userSpaceOnUse">
<stop stop-color="#1A011E"/>
<stop offset="1" stop-color="#720484"/>
</linearGradient>
</defs>
</svg>
