<svg width="60" height="60" viewBox="0 0 60 60" fill="none" xmlns="http://www.w3.org/2000/svg">
<path d="M21.2547 42H20.7547V42.5C20.7547 44.7144 21.5354 46.6129 23.0886 48.1661C24.6418 49.7192 26.5402 50.5 28.7547 50.5C30.9691 50.5 32.8676 49.7192 34.4207 48.1661C35.9739 46.6129 36.7547 44.7144 36.7547 42.5C36.7547 40.2856 35.9739 38.3871 34.4207 36.8339C32.8676 35.2808 30.9691 34.5 28.7547 34.5H5.00467H4.50467V35V40V40.5H5.00467H28.7547C29.3371 40.5 29.8016 40.6915 30.1824 41.0723C30.5631 41.4531 30.7547 41.9176 30.7547 42.5C30.7547 43.0824 30.5631 43.5469 30.1824 43.9277C29.8016 44.3085 29.3371 44.5 28.7547 44.5C28.1723 44.5 27.7077 44.3085 27.327 43.9277C26.9462 43.5469 26.7547 43.0824 26.7547 42.5V42H26.2547H21.2547ZM4.50467 25V25.5H5.00467H38.7547C41.3411 25.5 43.5426 24.6067 45.327 22.8223C47.1114 21.0379 48.0047 18.8365 48.0047 16.25C48.0047 13.6635 47.1114 11.4621 45.327 9.6777C43.5426 7.89332 41.3411 7 38.7547 7C36.1682 7 33.9667 7.89332 32.1824 9.6777C30.398 11.4621 29.5047 13.6635 29.5047 16.25V16.75H30.0047H35.0047H35.5047V16.25C35.5047 15.2874 35.8143 14.5225 36.4207 13.9161C37.0272 13.3096 37.792 13 38.7547 13C39.7173 13 40.4822 13.3096 41.0886 13.9161C41.6951 14.5225 42.0047 15.2874 42.0047 16.25C42.0047 17.2126 41.6951 17.9775 41.0886 18.5839C40.4822 19.1904 39.7173 19.5 38.7547 19.5H5.00467H4.50467V20V25ZM45.7547 45V45.5H46.2547C48.8411 45.5 51.0426 44.6067 52.827 42.8223C54.6114 41.0379 55.5047 38.8365 55.5047 36.25C55.5047 33.6635 54.6114 31.4621 52.827 29.6777C51.0426 27.8933 48.8411 27 46.2547 27H5.00467H4.50467V27.5V32.5V33H5.00467H46.2547C47.2173 33 47.9822 33.3096 48.5886 33.9161C49.1951 34.5225 49.5047 35.2873 49.5047 36.25C49.5047 37.2127 49.1951 37.9775 48.5886 38.5839C47.9822 39.1904 47.2173 39.5 46.2547 39.5H45.7547V40V45Z" fill="white" stroke="black"/>
</svg>
