<svg width="75" height="75" viewBox="0 0 75 75" fill="none" xmlns="http://www.w3.org/2000/svg">
<circle cx="37.5" cy="37.5" r="35.5" fill="black" fill-opacity="0.75" stroke="black" stroke-width="4"/>
<path d="M58.959 27.6849C58.4653 25.8398 57.0152 24.3899 55.1702 23.896C51.8296 23 38.4275 23 38.4275 23C38.4275 23 25.0256 23 21.6848 23.896C19.8398 24.3899 18.3899 25.8398 17.896 27.6849C17 31.0256 17 38 17 38C17 38 17 44.9744 17.896 48.3152C18.3899 50.1602 19.8398 51.6101 21.6848 52.1039C25.0256 53 38.4275 53 38.4275 53C38.4275 53 51.8296 53 55.1702 52.1039C57.0152 51.6101 58.4653 50.1602 58.959 48.3152C59.8551 44.9744 59.8552 38 59.8552 38C59.8552 38 59.8516 31.0256 58.959 27.6849Z" fill="#FF0000"/>
<path d="M34.1379 44.4281L45.2715 38.0006L34.1379 31.573V44.4281Z" fill="white"/>
</svg>
