<svg width="43" height="30" viewBox="0 0 43 30" fill="none" xmlns="http://www.w3.org/2000/svg">
<path d="M41.959 4.68486C41.4653 2.83984 40.0152 1.38993 38.1702 0.896049C34.8296 2.68221e-07 21.4275 0 21.4275 0C21.4275 0 8.02563 2.68221e-07 4.68484 0.896049C2.83984 1.38993 1.38993 2.83984 0.896049 4.68486C2.68221e-07 8.02563 0 15 0 15C0 15 2.68221e-07 21.9744 0.896049 25.3152C1.38993 27.1602 2.83984 28.6101 4.68484 29.1039C8.02563 30 21.4275 30 21.4275 30C21.4275 30 34.8296 30 38.1702 29.1039C40.0152 28.6101 41.4653 27.1602 41.959 25.3152C42.8551 21.9744 42.8552 15 42.8552 15C42.8552 15 42.8516 8.02563 41.959 4.68486Z" fill="#FF0000"/>
<path d="M17.1379 21.4281L28.2715 15.0006L17.1379 8.573V21.4281Z" fill="white"/>
</svg>
